<svg fill="#cd2027" xmlns="http://www.w3.org/2000/svg"  viewBox="0 0 50 50" width="50px" height="50px"><path d="M 24.974609 8 C 20.692609 8 16.799094 10.484141 14.996094 14.369141 L 13.3125 18 L 40.630859 18 C 41.182859 18 41.630859 18.448 41.630859 19 C 41.630859 19.552 41.182859 20 40.630859 20 L 35.269531 20 L 7.8867188 20 L 2.8867188 30 L 7.6835938 30 L 6.7226562 32.349609 C 4.8386562 36.954609 8.2242188 42 13.199219 42 L 29.373047 42 C 31.670047 42 33.767484 40.688094 34.771484 38.621094 L 35.195312 37.746094 C 36.487313 35.090094 34.551656 32 31.597656 32 L 14.630859 32 C 13.260942 32 12.086363 31.176451 11.564453 30 L 35.269531 30 L 35.269531 29.974609 C 39.994255 29.710601 44.182652 26.769703 46.007812 22.359375 L 46.230469 21.824219 C 48.955469 15.241219 44.116234 8 36.990234 8 L 24.974609 8 z"/></svg>